<svg version="1.1" xmlns="http://www.w3.org/2000/svg" xmlns:xlink="http://www.w3.org/1999/xlink" width="375.000000pt" height="666.000000pt" viewBox="0,0,144.1375,256"><g fill="#900c3d" fill-rule="nonzero" stroke="none" stroke-width="1" stroke-linecap="butt" stroke-linejoin="miter" stroke-miterlimit="10" stroke-dasharray="" stroke-dashoffset="0" font-family="none" font-weight="none" font-size="none" text-anchor="none" style="mix-blend-mode: normal"><g transform="translate(0.72829,0.16615) scale(0.38438,0.38438)"><g transform="translate(0,666) scale(0.1,-0.1)"><path d="M3043,6639c-157,-30 -543,-273 -853,-535c-355,-300 -652,-721 -866,-1228c-144,-341 -215,-770 -185,-1121c21,-238 75,-432 172,-613l42,-78l-60,-90c-241,-359 -396,-721 -454,-1054c-52,-305 -45,-873 16,-1249c9,-52 14,-96 11,-98c-6,-7 -74,112 -183,320c-149,286 -185,329 -252,306c-66,-23 -67,-73 -2,-188c26,-47 90,-165 141,-261c51,-96 157,-272 235,-390c78,-118 154,-234 169,-258c42,-68 61,-82 107,-82c85,0 105,33 164,262c63,246 178,665 215,787c11,35 20,76 20,93c0,40 -40,78 -83,78c-62,0 -70,-18 -156,-335c-60,-222 -90,-327 -95,-332c-5,-5 -40,143 -60,257c-61,349 -61,352 -61,645c0,229 3,298 18,380c48,259 106,436 217,660c61,123 183,328 216,364c2,2 27,-23 56,-55c82,-91 136,-138 223,-195c267,-175 590,-250 891,-208c235,32 467,186 566,375c46,88 88,239 88,318c0,175 -97,352 -249,455c-216,147 -559,224 -781,177c-226,-49 -480,-204 -694,-425c-43,-45 -81,-81 -85,-81c-11,0 -69,136 -100,236c-44,145 -61,266 -61,444c0,182 17,311 65,504c173,701 608,1324 1186,1699c199,129 540,307 713,372c27,11 43,21 35,23c-8,2 -39,28 -69,58c-77,74 -112,84 -217,63zM2591,3540c186,-38 324,-102 417,-193c64,-64 94,-133 94,-227c2,-219 -150,-403 -397,-480c-138,-44 -387,-36 -550,17c-84,27 -226,97 -300,148c-87,59 -121,91 -192,178l-56,68l24,27c202,233 398,376 610,446c126,42 204,46 350,16z"></path></g></g></g></svg>