<svg version="1.1" xmlns="http://www.w3.org/2000/svg" xmlns:xlink="http://www.w3.org/1999/xlink" width="375.000000pt" height="666.000000pt" viewBox="0,0,144.1375,256"><g fill="#900c3d" fill-rule="nonzero" stroke="none" stroke-width="1" stroke-linecap="butt" stroke-linejoin="miter" stroke-miterlimit="10" stroke-dasharray="" stroke-dashoffset="0" font-family="none" font-weight="none" font-size="none" text-anchor="none" style="mix-blend-mode: normal"><g transform="translate(-0.72544,0.17213) scale(0.38438,0.38438)"><g transform="translate(0,666) scale(0.1,-0.1)"><path d="M565,6636c-16,-8 -50,-35 -75,-61c-25,-26 -53,-50 -64,-54c-15,-6 -9,-11 30,-26c112,-42 374,-171 534,-263c253,-145 424,-274 600,-451c378,-381 638,-841 765,-1357c48,-193 65,-322 65,-504c0,-178 -17,-299 -61,-444c-31,-100 -89,-236 -100,-236c-4,0 -42,36 -85,81c-214,221 -468,376 -694,425c-222,47 -565,-30 -781,-177c-152,-103 -249,-280 -249,-455c0,-79 42,-230 88,-318c99,-189 331,-343 566,-375c301,-42 624,33 891,208c87,57 141,104 223,195c29,32 54,57 56,55c32,-35 148,-229 207,-345c109,-217 163,-373 217,-628c26,-125 27,-143 27,-421c0,-304 0,-304 -61,-655c-20,-114 -55,-262 -60,-257c-5,5 -35,110 -95,332c-86,317 -94,335 -156,335c-43,0 -83,-38 -83,-78c0,-17 9,-58 20,-93c18,-62 54,-189 126,-449c18,-69 56,-212 84,-319c64,-250 83,-281 169,-281c46,0 65,14 107,82c15,24 91,140 169,258c78,118 184,294 235,390c51,96 115,214 141,261c65,115 64,165 -2,188c-67,23 -103,-20 -252,-306c-109,-208 -177,-327 -183,-320c-3,2 2,46 11,98c61,376 68,944 16,1249c-58,333 -213,695 -454,1054l-60,90l42,78c166,310 216,695 150,1151c-80,553 -434,1231 -870,1666c-294,292 -818,643 -1020,681c-68,13 -98,12 -134,-4zM1506,3525c214,-70 409,-212 613,-447l24,-27l-56,-68c-71,-87 -105,-119 -192,-178c-198,-137 -423,-202 -660,-192c-186,8 -328,62 -443,170c-126,120 -178,312 -123,457c50,134 233,246 486,300c143,30 224,26 351,-15z"></path></g></g></g></svg>