<svg version="1.1" xmlns="http://www.w3.org/2000/svg" xmlns:xlink="http://www.w3.org/1999/xlink" width="32px" height="32px" viewBox="0,0,256,256"><g fill="#900c3d" fill-rule="nonzero" stroke="none" stroke-width="1" stroke-linecap="butt" stroke-linejoin="miter" stroke-miterlimit="10" stroke-dasharray="" stroke-dashoffset="0" font-family="none" font-weight="none" font-size="none" text-anchor="none" style="mix-blend-mode: normal"><g transform="translate(0.13812,-4) scale(8,8)"><g><path d="M30,28h-28c-0.3,0 -0.7,-0.2 -0.9,-0.5c-0.2,-0.3 -0.2,-0.7 0,-1l2,-3c0.2,-0.3 0.5,-0.5 0.9,-0.5h24c0.4,0 0.7,0.2 0.9,0.6l2,3c0.2,0.3 0.1,0.7 0,1c-0.2,0.2 -0.6,0.4 -0.9,0.4z"></path></g><path d="M27,5h-22c-0.6,0 -1,0.4 -1,1v14c0,0.6 0.4,1 1,1h22c0.6,0 1,-0.4 1,-1v-14c0,-0.6 -0.4,-1 -1,-1zM11.7,15.3c0.4,0.4 0.4,1 0,1.4c-0.2,0.2 -0.4,0.3 -0.7,0.3c-0.3,0 -0.5,-0.1 -0.7,-0.3l-3,-3c-0.4,-0.4 -0.4,-1 0,-1.4l3,-3c0.4,-0.4 1,-0.4 1.4,0c0.4,0.4 0.4,1 0,1.4l-2.3,2.3zM18.9,9.4l-4,8c-0.2,0.4 -0.5,0.6 -0.9,0.6c-0.2,0 -0.3,0 -0.4,-0.1c-0.5,-0.2 -0.7,-0.8 -0.4,-1.3l4,-8c0.2,-0.5 0.8,-0.7 1.3,-0.4c0.4,0.2 0.6,0.8 0.4,1.2zM24.7,13.7l-3,3c-0.2,0.2 -0.4,0.3 -0.7,0.3c-0.3,0 -0.5,-0.1 -0.7,-0.3c-0.4,-0.4 -0.4,-1 0,-1.4l2.3,-2.3l-2.3,-2.3c-0.4,-0.4 -0.4,-1 0,-1.4c0.4,-0.4 1,-0.4 1.4,0l3,3c0.4,0.4 0.4,1 0,1.4z"></path></g></g></svg>