<svg version="1.1" xmlns="http://www.w3.org/2000/svg" xmlns:xlink="http://www.w3.org/1999/xlink" width="231.4141px" height="237.1826px" viewBox="0,0,249.7625,256"><g fill="#900c3d" fill-rule="nonzero" stroke="none" stroke-width="1" stroke-linecap="butt" stroke-linejoin="miter" stroke-miterlimit="10" stroke-dasharray="" stroke-dashoffset="0" font-family="none" font-weight="none" font-size="none" text-anchor="none" style="mix-blend-mode: normal"><g transform="translate(-0.00565,0) scale(1.07934,1.07934)"><g><path d="M107.752,67.1821v-19.7915h100.9268v36.3648l10,-10.0005v-26.3633v-26.0947h-10.001h-100.9268h-10v26.0947v5.1304c3.4541,3.2251 7.0225,7.8911 10.001,14.6601zM158.2149,29.7969c2.7617,0 5,2.2392 5,5c0,2.7607 -2.2383,5 -5,5c-2.7617,0 -5,-2.2393 -5,-5c0,-2.7608 2.2383,-5 5,-5z"></path><path d="M208.6789,187.2959h-100.9269v-36.3857c-1.9014,0.9677 -4.0469,1.5166 -6.3135,1.5185c-0.2568,0 -0.5146,-0.0117 -0.7773,-0.0234c-0.999,-0.0586 -1.9717,-0.2227 -2.9102,-0.4766v35.3672v10h10h100.9268h10.001v-10v-90.9189l-10,10.0005v80.9184z"></path><path d="M184.9786,167.2959c-3.3516,0 -6.4307,-1.1865 -8.8438,-3.1582l-5.6562,10.4395l6.6172,-1.8692l1.9316,6.5l5.9492,-10.9814l5.9512,10.9814l1.9316,-6.5l6.6172,1.8692l-5.6562,-10.4395c-2.4131,1.9717 -5.4912,3.1582 -8.8418,3.1582z"></path><circle cx="184.9776" cy="153.2959" r="12"></circle><rect x="125.8459" y="68.2969" width="66.5" height="5.1494"></rect><rect x="125.8459" y="80.9717" width="66.5" height="5.1484"></rect><rect x="125.8459" y="93.6475" width="66.5" height="5.1484"></rect><rect x="125.8459" y="151.6475" width="27.5" height="5.1484"></rect><rect x="125.8459" y="161.6475" width="27.5" height="5.1484"></rect><path d="M160.3497,143.3936l10.2539,-3.1817l60.8105,-60.8105l-7.0712,-7.0713l-60.8106,60.8115z"></path><path d="M57.6827,134.5479h4.6357v90.2695c0,6.832 5.5371,12.3652 12.3653,12.3652c6.8261,0 12.3632,-5.5332 12.3632,-12.3652v-98v-18.9375v-33.0645c3.4678,7.0997 6.9981,20.7032 6.9649,44.92c0,5.5156 -0.1778,11.5722 -0.5684,18.2216c-0.2597,4.4112 3.1055,8.1983 7.5176,8.4561c0.1602,0.0078 0.3184,0.0137 0.4756,0.0137c4.2041,-0.002 7.7295,-3.2813 7.9795,-7.5332c0.4062,-6.9336 0.5937,-13.3008 0.5937,-19.1582c-0.0117,-22.6582 -2.7695,-37.6641 -6.8769,-48.045c-4.0567,-10.3388 -9.8555,-16.1738 -15.2344,-18.8418c-3.416,-1.7207 -6.4141,-2.1103 -8.2207,-2.1328c-0.1191,-0.0048 -0.2383,-0.0175 -0.3594,-0.0175h-26.5585c0.0039,0.2187 0.0078,0.476 0.0088,0.8066c-0.0156,3.9165 -0.4473,15.5044 -5.4082,28.7744l-5.5381,-2.332c4.5117,-12.2256 4.959,-22.9898 4.9463,-26.4424c0,-0.3604 -0.0039,-0.6206 -0.0088,-0.8066h-6.0771c-0.4785,0 -0.9444,0.0498 -1.3994,0.1328l0.0009,0.0088c-3.0869,0.3481 -5.7656,1.5576 -8.1093,3.1054c-2.7657,1.8487 -5.1524,4.2608 -7.2149,7.1104c-4.0879,5.6865 -6.9238,13.2461 -6.9394,21.8418c-0.0098,6.4345 1.6718,13.4101 5.5722,20.0996c3.8907,6.6992 9.9258,13.0723 18.375,18.7207c1.3653,0.9141 2.9121,1.3535 4.4414,1.3535c2.5801,0 5.1133,-1.248 6.6563,-3.5527c2.457,-3.6719 1.4726,-8.6407 -2.2012,-11.0977c-6.7773,-4.541 -10.9394,-9.168 -13.4394,-13.4648c-2.4903,-4.3086 -3.3946,-8.3262 -3.4043,-12.0586c-0.0039,-3.4864 0.8359,-6.7364 2.1201,-9.4297c1.2627,-2.6856 3.0166,-4.7774 4.3916,-5.8359c0.4258,-0.3418 0.79,-0.5582 1.0674,-0.6988l0.1845,2.2583c-1.0449,0.8057 -2.6484,2.6084 -3.8339,5.128c-1.2676,2.6601 -1.9327,5.621 -1.9297,8.5761c0.0058,1.9668 0.2881,3.8814 0.8418,5.7735l3.5683,-8.4727l30.9902,13.0488l-16.6514,39.5332l-30.9873,-13.0468l3.4609,-8.2188c-2.0654,-2.4062 -3.8691,-4.9101 -5.3818,-7.5117c-3.832,-6.5781 -5.8516,-13.877 -5.8389,-21.1074c0.0117,-8.2891 2.6113,-16.461 7.3125,-23.0059c2.2715,-3.1387 4.8711,-5.6943 7.7285,-7.6055c2.8467,-1.8808 6.1348,-3.0703 9.0557,-3.4628l0.001,0.017c0.5107,-0.0825 1.0293,-0.1372 1.5625,-0.1372h14.6308c-5.2861,-1.1284 -14.3964,-2.8554 -20.2773,-2.7729c-1.5176,0.0215 -2.8252,0.1606 -3.7891,0.4653c-6.332,2 -24,14 -30.5,49.5c-4.8877,26.6924 15.2422,47.5879 30.2071,51.2129v-20.6777l2,0.8418v28.708v68.8408c0,6.832 5.538,12.3652 12.3652,12.3652c5.2812,0 9.7783,-3.3183 11.5488,-7.9814c0.5186,-1.3643 0.8145,-2.8379 0.8145,-4.3838z"></path><path d="M82.5001,22.5c0,-12.4267 -10.0742,-22.5 -22.4991,-22.5c-12.4277,0 -22.5,10.0733 -22.5,22.5c0,12.4268 10.0723,22.5 22.5,22.5c12.4249,0 22.4991,-10.0732 22.4991,-22.5z"></path><rect x="-67.70231" y="72.90779" transform="rotate(-67.16329) scale(0.99998,0.99998)" width="2.3252" height="22.7425"></rect><rect x="-72.44734" y="72.82934" transform="rotate(-67.22499) scale(0.99997,0.99997)" width="2.3256" height="22.7441"></rect></g></g></g></svg>