<svg version="1.1" xmlns="http://www.w3.org/2000/svg" xmlns:xlink="http://www.w3.org/1999/xlink" width="64px" height="64px" viewBox="0,0,256,256"><defs><linearGradient x1="7.12939" y1="32" x2="56.87715" y2="32" gradientUnits="userSpaceOnUse" id="color-1"><stop offset="0" stop-color="#900c3d"></stop><stop offset="1" stop-color="#900c3d"></stop></linearGradient></defs><g fill="url(#color-1)" fill-rule="nonzero" stroke="none" stroke-width="1" stroke-linecap="butt" stroke-linejoin="miter" stroke-miterlimit="10" stroke-dasharray="" stroke-dashoffset="0" font-family="none" font-weight="none" font-size="none" text-anchor="none" style="mix-blend-mode: normal"><g transform="translate(0.00853,0) scale(4,4)"><path d="M46.80664,13.63281c6.36514,-0.20234 6.36365,-9.43142 -0.00011,-9.63281c-6.36503,0.20234 -6.36353,9.43142 0.00011,9.63281zM46.80664,6c1.54321,0.01723 2.78516,1.27314 2.78514,2.81644c-0.00002,1.54331 -1.24201,2.79918 -2.78522,2.81637c-1.54321,-0.01723 -2.78516,-1.27314 -2.78514,-2.81644c0.00002,-1.54331 1.24201,-2.79918 2.78522,-2.81637zM36.80908,41.877l2.79834,-11.05273c0.23836,-0.9221 0.29229,-1.8822 0.15869,-2.8252l-1.15035,-8.38131c-0.11142,-0.85749 0.15022,-1.72159 0.71858,-2.37325c0.56836,-0.65167 1.38888,-1.02833 2.25355,-1.03451h10.43746c0.86474,0.00624 1.68529,0.38297 2.25366,1.03471c0.56837,0.65174 0.82999,1.5159 0.71855,2.37345l-1.15039,8.37793c-0.13363,0.94278 -0.08004,1.90266 0.15771,2.82471l2.80075,11.06345c0.15127,0.60506 0.01642,1.24608 -0.3658,1.73891c-0.38222,0.49284 -0.96952,0.78295 -1.5932,0.787h-3.93989v14.58978c-0.00845,0.54625 -0.45366,0.98464 -0.99997,0.98466c-0.54631,0.00002 -0.99155,-0.43835 -1.00003,-0.9846v-15.58984c0,-0.55228 0.44772,-1 1,-1h4.93994l-2.7793,-11.09473c-0.30265,-1.17321 -0.37101,-2.39458 -0.20117,-3.59424l1.1499,-8.37549c0.03932,-0.28623 -0.04712,-0.57547 -0.23704,-0.79319c-0.18993,-0.21772 -0.46476,-0.34262 -0.75368,-0.34251h-10.43749c-0.28843,0.00136 -0.56235,0.12668 -0.75195,0.34404c-0.18961,0.21736 -0.27659,0.50575 -0.23878,0.79169l1.1499,8.37842c0.1698,1.19987 0.1011,2.42146 -0.20215,3.59473l-2.79931,11.05661l4.9707,0.03467c0.55227,0.00003 0.99997,0.44773 1,1v15.58978c-0.00845,0.54625 -0.45366,0.98464 -0.99997,0.98466c-0.54631,0.00002 -0.99155,-0.43835 -1.00003,-0.9846v-14.58984h-3.94971c-0.62508,-0.00386 -1.21362,-0.29511 -1.59584,-0.78973c-0.38222,-0.49462 -0.51561,-1.13759 -0.36168,-1.74343zM30.12939,60c1.6561,-0.00181 2.99819,-1.3439 3,-3v-50c0,-1.65685 -1.34315,-3 -3,-3c-1.65685,0 -3,1.34315 -3,3v50c0.00181,1.6561 1.3439,2.99819 3,3zM29.12939,7c0.00882,-0.546 0.45396,-0.98399 1.00003,-0.98397c0.54607,0.00002 0.99118,0.43804 0.99997,0.98403v49.99994c-0.00848,0.54624 -0.45372,0.98461 -1.00003,0.9846c-0.54631,-0.00002 -0.99152,-0.43841 -0.99997,-0.98466zM15.12939,13.63281c6.36514,-0.20234 6.36361,-9.43142 -0.0001,-9.63281c-6.36503,0.20234 -6.36355,9.43142 0.0001,9.63281zM15.12939,6c1.54321,0.01723 2.78516,1.27314 2.78514,2.81644c-0.00002,1.54331 -1.24201,2.79918 -2.78522,2.81637c-1.54321,-0.01723 -2.78516,-1.27314 -2.78514,-2.81644c0.00002,-1.54331 1.24201,-2.79918 2.78522,-2.81637zM7.12939,39.15186v-18.93995c0.00253,-2.20809 1.79191,-3.99747 4,-4h8c2.20809,0.00252 3.99748,1.79191 4,4v18.94c0.00085,1.32517 -0.65543,2.56453 -1.752,3.30859l-1.27685,0.86768c-0.54816,0.37214 -0.87626,0.99175 -0.876,1.65429v14.01747c-0.00845,0.54625 -0.45366,0.98464 -0.99997,0.98466c-0.54631,0.00002 -0.99155,-0.43835 -1.00003,-0.9846v-14.01758c-0.00085,-1.32517 0.65543,-2.56453 1.752,-3.30859l1.27686,-0.86768c0.54816,-0.37214 0.87626,-0.99175 0.876,-1.65429v-18.93995c-0.0011,-1.10411 -0.89589,-1.9989 -2,-2h-8c-1.10411,0.0011 -1.9989,0.89589 -2,2l0.00008,18.93991c-0.08616,1.24979 1.29054,1.92708 2.15324,2.522c1.09639,0.74421 1.75262,1.98348 1.752,3.30859v14.01759c-0.00809,0.5465 -0.45341,0.98529 -0.99998,0.9853c-0.54656,0.00001 -0.9919,-0.43875 -1.00002,-0.98525l-0.00012,-14.01759c0.083,-1.24926 -1.284,-1.9255 -2.15325,-2.522c-1.09638,-0.74423 -1.75259,-1.98349 -1.75196,-3.3086z"></path></g></g></svg>