<svg version="1.1" xmlns="http://www.w3.org/2000/svg" xmlns:xlink="http://www.w3.org/1999/xlink" width="50px" height="50px" viewBox="0,0,256,256"><g fill="#900c3d" fill-rule="nonzero" stroke="none" stroke-width="1" stroke-linecap="butt" stroke-linejoin="miter" stroke-miterlimit="10" stroke-dasharray="" stroke-dashoffset="0" font-family="none" font-weight="none" font-size="none" text-anchor="none" style="mix-blend-mode: normal"><g transform="translate(0,-0.4096) scale(5.12,5.12)"><g id="Layer_1"><path d="M16.996,0.992l-15.996,2.133v46.177l16.008,-4.269l15.935,3.984l16.057,-2.142v-46.017l-16.004,2.134zM47,3.142v41.982l-13.943,1.859l-16.065,-4.016l-13.992,3.731v-41.823l14.004,-1.867l16,2z"></path><path d="M24.272,34.686l0.728,0.772l0.728,-0.771c0.378,-0.402 9.272,-9.923 9.272,-17.687c0,-8.11 -5.166,-11 -10,-11c-4.834,0 -10,2.89 -10,11c0,7.764 8.894,17.285 9.272,17.686zM25,8c2.405,0 8,0.877 8,9c0,5.761 -5.904,13.082 -8,15.499c-2.097,-2.417 -8,-9.731 -8,-15.499c0,-8.123 5.595,-9 8,-9z"></path><path d="M25,21c2.757,0 5,-2.243 5,-5c0,-2.757 -2.243,-5 -5,-5c-2.757,0 -5,2.243 -5,5c0,2.757 2.243,5 5,5zM25,13c1.654,0 3,1.346 3,3c0,1.654 -1.346,3 -3,3c-1.654,0 -3,-1.346 -3,-3c0,-1.654 1.346,-3 3,-3z"></path></g><g font-family="Inter, apple-system, BlinkMacSystemFont, &quot;Helvetica Neue&quot;, &quot;Segoe UI&quot;, &quot;Fira Sans&quot;, Roboto, Oxygen, Ubuntu, &quot;Droid Sans&quot;, Arial, sans-serif" font-weight="400" font-size="16" text-anchor="start"></g></g></g></svg>