<svg version="1.1" xmlns="http://www.w3.org/2000/svg" xmlns:xlink="http://www.w3.org/1999/xlink" width="1.70666in" height="1.70666in" viewBox="0,0,256,256"><g fill="#900c3d" fill-rule="evenodd" stroke="none" stroke-width="1" stroke-linecap="butt" stroke-linejoin="miter" stroke-miterlimit="10" stroke-dasharray="" stroke-dashoffset="0" font-family="none" font-weight="none" font-size="none" text-anchor="none" style="mix-blend-mode: normal"><g transform="translate(0.00042,-0.00417) scale(0.15,0.15)"><g id="Layer_x0020_1"><path d="M637.99,1447.22h-200.07c-23.65,0 -43.09,-18.75 -45.22,-43.59l-9.39,-109.11c-2.88,-1.17 -5.74,-2.35 -8.6,-3.59l-83.79,70.53c-19.08,16.04 -46.07,15.57 -62.8,-1.15l-141.49,-141.46c-16.72,-16.72 -17.22,-43.72 -1.17,-62.81l70.54,-83.79c-1.22,-2.85 -2.4,-5.72 -3.57,-8.6l-109.11,-9.39c-24.86,-2.14 -43.61,-21.58 -43.61,-45.25v-200.06c0,-23.65 18.74,-43.09 43.59,-45.23l109.11,-9.39c1.15,-2.87 2.35,-5.75 3.57,-8.6l-70.51,-83.8c-16.07,-19.08 -15.57,-46.08 1.16,-62.8l141.48,-141.46c16.71,-16.73 43.7,-17.23 62.82,-1.15l83.78,70.5c2.86,-1.22 5.74,-2.41 8.61,-3.57l9.39,-109.09c2.13,-24.86 21.58,-43.59 45.22,-43.59h200.07c23.65,0 43.09,18.73 45.23,43.59l9.39,109.11c2.88,1.16 5.74,2.35 8.6,3.57c107.08,-90.11 109.2,-107.24 167.28,-49.5c2.92,5.03 6.29,9.88 9.88,14.61c-39.77,6.78 -69.56,28.52 -69.56,70.89c0,38.13 -1.8,76.89 -0.91,114.89c1.25,53.07 14.43,83.22 70.33,90.88c-23.32,32.92 -29.03,69.34 0.93,99.31c26.95,26.96 53.09,55.64 80.57,81.87c38.75,36.97 69.38,48.61 114.5,14.16l2.52,14.44c-0.05,83.76 -12.72,72.98 -153.28,85.08c-1.15,2.87 -2.35,5.74 -3.57,8.6l70.51,83.78c16.06,19.11 15.55,46.11 -1.16,62.83l-141.46,141.48c-16.72,16.71 -43.7,17.21 -62.8,1.17l-83.8,-70.54c-2.86,1.22 -5.72,2.42 -8.6,3.57l-9.39,109.11c-2.13,24.87 -21.58,43.6 -45.24,43.6zM537.96,1138.44c-126.53,0 -229.46,-102.94 -229.46,-229.46c0,-126.52 102.94,-229.46 229.46,-229.46c126.52,0 229.46,102.94 229.46,229.46c0,126.52 -102.93,229.46 -229.46,229.46z"></path><path d="M1155.97,1000.54c-51.51,-1.71 -46.57,-14.76 -54.19,-103.26c-93.96,79.06 -67.31,78.96 -199.03,-52.76c-31.32,-31.32 13.09,-68.13 42.81,-103.46c-122.32,-10.54 -103.41,8.27 -103.41,-178.05c0,-44.3 57.4,-38.92 103.41,-42.87c-79.28,-94.22 -78.74,-67.3 52.74,-199.03c31.3,-31.35 68.09,13.04 103.47,42.82c10.54,-122.34 -8.25,-103.43 178.04,-103.43c44.29,0 38.93,57.44 42.89,103.43c94.09,-79.17 67.29,-78.87 199.03,52.74c31.33,31.3 -13.07,68.11 -42.82,103.45c122.35,10.55 103.44,-8.25 103.44,178.05c0,44.29 -57.44,38.93 -103.44,42.89c43.48,51.67 61.14,67.31 51.89,88.19c-12.09,-19.21 -31.58,-29.19 -54.45,-29.19c-45.89,0 -119.07,-9.37 -147.18,18.75c-7,7 -11.58,15.76 -14.68,25.33c-25.76,-12.43 -53.61,-8.69 -74.52,12.19c-32.46,32.41 -90.93,77.65 -90.8,117.56c0.03,9.31 2.65,18.19 6.8,26.65zM1212.23,794.23c-90.22,0 -163.62,-73.4 -163.62,-163.63c0,-90.22 73.4,-163.62 163.62,-163.62c90.22,0 163.63,73.4 163.63,163.62c0,90.22 -73.41,163.63 -163.63,163.63z"></path><path d="M1476.35,1393.74c-136.32,0 -129.35,12.42 -136.58,-71.71c-64.48,54.25 -51.68,49.89 -147.28,-45.86c-26.01,-26.05 6.42,-54 25.16,-76.27c-84.1,-7.24 -71.69,-0.21 -71.69,-136.58c0,-36.77 42.69,-33.63 71.71,-36.13c-54.22,-64.37 -50.74,-50.84 45.85,-147.27c25.99,-25.95 55.17,7.42 76.24,25.15c7.24,-84.15 0.27,-71.69 136.59,-71.68c36.8,0 33.64,42.64 36.14,71.67c64.64,-54.41 51.81,-49.65 147.27,45.87c26.02,26.03 -6.39,53.96 -25.15,76.25c84.1,7.26 71.69,0.2 71.69,136.58c0,36.8 -42.66,33.64 -71.69,36.14c54.35,64.57 50.5,50.96 -45.86,147.27c-25.99,25.97 -55.2,-7.42 -76.27,-25.15c-2.5,29.07 0.66,71.72 -36.13,71.72zM1426.13,1223.78c-60.79,0 -110.24,-49.46 -110.24,-110.25c0,-60.77 49.46,-110.23 110.24,-110.23c60.79,0 110.25,49.46 110.25,110.23c0,60.8 -49.46,110.25 -110.25,110.25z"></path></g></g></g></svg>