<svg version="1.1" xmlns="http://www.w3.org/2000/svg" xmlns:xlink="http://www.w3.org/1999/xlink" width="64" height="64" viewBox="0,0,256,256"><g fill="#900c3d" fill-rule="nonzero" stroke="none" stroke-width="0.52917" stroke-linecap="round" stroke-linejoin="round" stroke-miterlimit="4" stroke-dasharray="" stroke-dashoffset="0" font-family="none" font-weight="none" font-size="none" text-anchor="none" style="mix-blend-mode: normal"><g transform="translate(0.00002,-0.00019) scale(15.11811,15.11811)"><g id="layer1"><path d="M7.28224,0.0007c-0.19257,-0.0073 -0.37498,0.04372 -0.49506,0.11265c-0.25989,0.134 -0.43796,0.40664 -0.4377,0.78599c0.0041,0.40176 0.14993,0.736 0.27957,1.02473c0.05064,0.11278 0.09778,0.21893 0.13746,0.31781c-0.30407,0.11213 -0.60588,0.28249 -0.8878,0.4439c-0.23343,0.13364 -0.44636,0.26494 -0.61288,0.35915c-0.08286,0.04727 -0.18619,0.09634 -0.23875,0.11989c-0.0043,-0.14271 -0.12175,-0.25738 -0.26562,-0.25683h-0.79272c-0.0005,-0.14542 -0.11815,-0.26303 -0.26355,-0.26355h-3.44165c-0.1454,0.00052 -0.26303,0.11813 -0.26355,0.26355v4.4989c-0.00056,0.14618 0.11738,0.2651 0.26355,0.26561h3.44165c0.14617,-0.00053 0.26411,-0.11943 0.26355,-0.26561h0.79272c0.14617,0.00056 0.26562,-0.11737 0.26613,-0.26355h0.26355c0.25415,-0.00087 0.54537,0.21412 0.72554,0.34106c-0.04972,0.07349 -0.09879,0.1466 -0.14934,0.22117c-0.66377,0.97909 -1.36943,2.06485 -1.36943,3.53773c0,0.52816 0.11102,1.00425 0.33176,1.40869c-0.0063,0.015 -0.01227,0.03036 -0.01757,0.04599c-0.7605,-0.0038 -1.36404,-0.0001 -2.04174,0c0.25182,-0.28082 0.40566,-0.65114 0.40566,-1.05626c0,-0.87367 -0.71444,-1.588 -1.58802,-1.588c-0.87357,0 -1.58802,0.71433 -1.58802,1.588c0,0.43943 0.18051,0.83779 0.47129,1.1255c-0.27672,0.12486 -0.47129,0.40509 -0.47129,0.72605v0.79271c0,0.20257 0.07784,0.38903 0.20464,0.53019c-0.12676,0.14076 -0.20464,0.32659 -0.20464,0.52916v0.79271c0,0.43519 0.35782,0.79495 0.79272,0.79529c1.38148,0.00006 3.1626,0 4.23488,0c0.4349,-0.00034 0.79272,-0.3601 0.79272,-0.79529v-0.79271c0,-0.20257 -0.07788,-0.3884 -0.20464,-0.52916c0.09033,-0.10057 0.15592,-0.22427 0.18604,-0.36018c0.27681,0.26275 0.62056,0.58467 0.98547,0.9126c0.41907,0.3766 0.85723,0.75456 1.23455,1.04282c0.4205,0.30873 0.72958,0.51926 0.9741,0.52193c0.45564,0 1.23195,-0.13684 1.9606,-0.26975c0.36433,-0.06645 0.71088,-0.13209 0.98237,-0.18138c0.16543,-0.03367 0.3428,-0.05759 0.49609,-0.07855l0.26355,0.001c0.00053,0.14721 0.11997,0.26513 0.26613,0.26458h0.79272c0.00056,0.146 0.11938,0.26463 0.26562,0.26407h2.64428c0.14693,0.00056 0.2667,-0.11919 0.26613,-0.26613v-4.23277c0.00056,-0.14695 -0.1192,-0.26618 -0.26613,-0.26561h-2.64428c-0.14693,-0.00056 -0.26618,0.11867 -0.26562,0.26561h-0.79272c-0.14616,-0.00056 -0.26562,0.11736 -0.26613,0.26355v0.15658c-0.223,-0.061 -0.41018,-0.12762 -0.59893,-0.19585c0.22319,-0.40587 0.33538,-0.88431 0.33538,-1.4154c0,-1.45221 -0.68348,-2.52609 -1.34049,-3.49587c0.17199,-0.14592 0.28215,-0.36295 0.28215,-0.60409c0,-0.20246 -0.07749,-0.38901 -0.20412,-0.53019c0.12649,-0.1407 0.20412,-0.32632 0.20412,-0.52864c0,-0.20243 -0.07752,-0.3885 -0.20412,-0.52968c0.12661,-0.14073 0.20412,-0.32621 0.20412,-0.52864c0,-0.37287 -0.26293,-0.69029 -0.61185,-0.77359c0.21557,-0.44153 -0.0235,-0.82881 -0.29042,-1.02577c-0.0034,-0.00273 -0.1582,-0.12495 -0.38189,-0.28628c0.02605,-0.26312 0.12365,-0.58932 0.22944,-0.91725c0.12367,-0.38334 0.26148,-0.76453 0.26148,-1.1348c0,-0.37156 -0.18142,-0.63658 -0.45682,-0.77927c-0.23307,-0.12072 -0.5198,-0.12639 -0.6935,-0.08006c-0.34931,0.07785 -0.58168,0.30381 -0.80874,0.50229c-0.05688,0.04973 -0.11316,0.09851 -0.17208,0.14573c-0.29313,-0.23867 -0.52432,-0.52707 -0.97565,-0.64802c-0.06439,-0.0168 -0.13011,-0.02599 -0.1943,-0.02842zM9.64179,0.52986c0.09196,-0.00334 0.18287,0.02027 0.24443,0.05219c0.06936,0.03538 0.16795,0.10775 0.16795,0.30644c0,0.22246 -0.11151,0.58667 -0.23616,0.97306c-0.0778,0.24118 -0.16075,0.49256 -0.21187,0.74672c-0.16899,-0.10848 -0.34521,-0.21366 -0.51676,-0.29972c-0.21326,-0.10698 -0.40688,-0.19327 -0.62632,-0.19327c-0.38483,0.00078 -0.7934,-0.00354 -1.17099,0.00362c-0.07107,-0.17735 -0.14405,-0.33021 -0.21394,-0.48627c0.24173,0.03339 0.53531,0.00328 0.9033,-0.0956c0.4542,-0.15028 0.75572,-0.40391 0.99064,-0.60926c0.23491,-0.20535 0.40111,-0.34631 0.57826,-0.38499c0.02974,-0.00784 0.06081,-0.01181 0.09147,-0.01292zM14.28336,2.11734c-0.15114,0.00423 -0.25996,0.12039 -0.26045,0.26355v0.26355c-0.00058,0.14619 0.11738,0.26511 0.26355,0.26561c0.14693,0.00058 0.2662,-0.11866 0.26562,-0.26561v-0.26355c-0.0005,-0.14619 -0.11919,-0.26412 -0.26872,-0.26355zM7.37474,2.64443h1.08831c0.35294,0.02053 1.22923,0.6529 1.68982,1.002c0.16115,0.12097 0.19238,0.25382 0.14573,0.35605c-0.04665,0.10223 -0.19556,0.22841 -0.51366,0.22841c-0.20647,0 -0.44614,-0.07255 -0.68213,-0.15813c-0.23603,-0.08558 -0.45411,-0.19054 -0.71003,-0.19378c-0.0958,-0.00108 -0.18483,0.05023 -0.23254,0.13332c-0.15872,0.27495 -0.28286,0.36984 -0.42375,0.42374c-0.14089,0.0539 -0.33125,0.06046 -0.59583,0.06046c-0.14617,-0.00058 -0.26511,0.11736 -0.26562,0.26355c-0.00056,0.144 0.11397,0.26151 0.25683,0.26561c-0.06685,0.72793 -0.40175,1.36534 -0.82166,2.01691c-0.32257,-0.21288 -0.59575,-0.42298 -1.01906,-0.42891h-0.26355v-2.91039c0.11697,-0.00082 0.17652,-0.0347 0.25166,-0.06873c0.07608,-0.03445 0.15617,-0.07786 0.24598,-0.12867c0.17961,-0.10162 0.39245,-0.23235 0.61753,-0.36121c0.45017,-0.25772 0.97078,-0.49443 1.23197,-0.50022zM15.33808,2.90643c-0.14679,0.00757 -0.25687,0.12399 -0.25632,0.26561v0.26355c0.0005,0.14543 0.11814,0.26305 0.26355,0.26355c0.14617,0.00058 0.26511,-0.11736 0.26562,-0.26355v-0.26355c0.00058,-0.14695 -0.11894,-0.26619 -0.27285,-0.26561zM13.22503,2.91005c-0.14562,0.00408 -0.25996,0.12091 -0.26045,0.26406v0.26561c0.0005,0.14543 0.11814,0.26305 0.26355,0.26355c0.14617,0.00058 0.26511,-0.11736 0.26562,-0.26355v-0.26562c-0.0005,-0.14619 -0.11919,-0.26464 -0.26872,-0.26406zM3.96875,3.43766h0.52917v3.43955h-0.52917zM14.28647,3.96527c-0.87358,0 -1.58802,0.71433 -1.58802,1.588c0,0.87367 0.71444,1.588 1.58802,1.588c0.87358,0 1.58802,-0.71433 1.58802,-1.588c0,-0.87367 -0.71444,-1.588 -1.58802,-1.588zM10.0521,4.76005h0.53123c0.15115,0 0.26355,0.11496 0.26355,0.26613c0,0.15117 -0.1124,0.26355 -0.26355,0.26355h-0.53123c-0.15115,0 -0.26355,-0.11238 -0.26355,-0.26355c0,-0.15117 0.1124,-0.26613 0.26355,-0.26613zM10.0521,5.81888h0.53123c0.15115,0 0.26355,0.11445 0.26355,0.26561c0,0.15117 -0.1124,0.26355 -0.26355,0.26355h-0.53123c-0.15115,0 -0.26355,-0.11238 -0.26355,-0.26355c0,-0.15117 0.1124,-0.26561 0.26355,-0.26561zM10.0521,6.87721h0.53123c0.15115,0 0.26355,0.11496 0.26355,0.26613c0,0.15117 -0.1124,0.26355 -0.26355,0.26355h-0.53123c-0.15115,0 -0.26355,-0.11238 -0.26355,-0.26355c0,-0.15117 0.1124,-0.26613 0.26355,-0.26613zM8.45995,7.67457c0.15289,0.0005 0.27033,0.11943 0.26975,0.26561v0.26355h0.26613c0.43515,0 0.79272,0.35959 0.79272,0.79478c-0.0005,0.14543 -0.11814,0.26356 -0.26355,0.26406c-0.14617,0.00058 -0.26511,-0.11788 -0.26562,-0.26406c0,-0.15116 -0.1124,-0.26561 -0.26355,-0.26561h-0.26613v1.05936h0.26613c0.43515,0 0.79272,0.35958 0.79272,0.79477v0.52916c0,0.4352 -0.35757,0.79322 -0.79272,0.79322h-0.26613v0.26355c0.00058,0.14619 -0.11686,0.26511 -0.26303,0.26561c-0.14694,0.00058 -0.2662,-0.11866 -0.26562,-0.26561v-0.26355h-0.26355c-0.43514,0 -0.79272,-0.35803 -0.79272,-0.79322c-0.00058,-0.14619 0.11738,-0.26511 0.26355,-0.26561c0.14694,-0.00058 0.2662,0.11866 0.26562,0.26561c0,0.15118 0.11239,0.26355 0.26355,0.26355h0.26355v-1.05832h-0.26355c-0.43514,0 -0.79272,-0.35803 -0.79272,-0.79322v-0.52968c0,-0.43519 0.35757,-0.79478 0.79272,-0.79478h0.26355v-0.26355c-0.00056,-0.14236 0.1116,-0.25901 0.2589,-0.26561zM1.58078,8.20373c-0.14756,0.00661 -0.25894,0.12325 -0.25838,0.26561v0.26355c-0.00058,0.14695 0.11868,0.26619 0.26562,0.26561c0.14617,-0.0005 0.26413,-0.11943 0.26355,-0.26561v-0.26355c0.00058,-0.14619 -0.11764,-0.26511 -0.27078,-0.26561zM7.9375,8.73289c-0.15115,0 -0.26355,0.11446 -0.26355,0.26561v0.52968c0,0.15117 0.11239,0.26406 0.26355,0.26406h0.26355v-1.05936zM2.63963,8.99488c-0.14659,0.00654 -0.25841,0.12244 -0.2589,0.26406v0.26561c0.0005,0.14619 0.11944,0.26412 0.26562,0.26355c0.14541,-0.0005 0.26305,-0.11812 0.26355,-0.26355v-0.26561c-0.0005,-0.14543 -0.11814,-0.26356 -0.27027,-0.26406zM0.52555,8.9985c-0.14639,0.00306 -0.26151,0.12016 -0.262,0.26406v0.26561c0.0005,0.14619 0.11944,0.26464 0.26562,0.26406c0.14541,-0.0005 0.26305,-0.11864 0.26355,-0.26406v-0.26561c-0.0005,-0.14543 -0.1184,-0.26356 -0.26717,-0.26406zM8.7297,10.3214v1.05832h0.26613c0.15116,0 0.26355,-0.11238 0.26355,-0.26355v-0.52916c0,-0.15115 -0.1124,-0.26561 -0.26355,-0.26561zM5.65082,12.69746c0.06497,0.0013 0.13494,0.01086 0.20257,0.02997l2.42879,0.68574c-0.08016,0.16567 -0.10452,0.35912 -0.05374,0.5488c0.11259,0.42048 0.55162,0.67499 0.97203,0.56223l1.53324,-0.41186c0.14139,-0.03763 0.22549,-0.18319 0.18759,-0.32452c-0.03763,-0.14141 -0.18269,-0.22497 -0.32401,-0.18707l-1.53324,0.41186c-0.14591,0.03913 -0.28533,-0.04118 -0.32453,-0.18758c-0.03918,-0.14635 0.04169,-0.28488 0.19637,-0.32711c0,0 0.40149,-0.13753 0.87436,-0.27233c0.47287,-0.1348 1.04476,-0.26355 1.30276,-0.26355c0.24134,0 0.54898,0.09931 0.86713,0.21445c0.23462,0.0849 0.47241,0.17943 0.7183,0.22324v2.47476h-0.26355c-0.20396,0.01061 -0.40593,0.05368 -0.58963,0.08578c-0.27545,0.05001 -0.62283,0.11801 -0.98444,0.18397c-0.72321,0.13192 -1.52707,0.25941 -1.865,0.25941c-0.21246,-0.08351 -0.46849,-0.2773 -0.65422,-0.41392c-0.35705,-0.27277 -0.78764,-0.64245 -1.20096,-1.01388c-0.54376,-0.48617 -1.07205,-0.9946 -1.59577,-1.50015c-0.23074,-0.19878 -0.29422,-0.37336 -0.23254,-0.60357c0.04287,-0.14064 0.19511,-0.17675 0.33848,-0.17467zM13.22813,12.96411h0.52917v3.176h-0.52917zM0.79272,13.22766h0.52968v0.52503c-0.00058,0.14695 0.11868,0.26619 0.26562,0.26561c0.14617,-0.0005 0.26413,-0.11943 0.26355,-0.26561v-0.52503h0.79478v0.52503c-0.00058,0.14619 0.11738,0.26511 0.26355,0.26561c0.14694,0.00058 0.26671,-0.11866 0.26613,-0.26561v-0.52503h0.79272v0.52503c-0.00058,0.14619 0.11738,0.26511 0.26355,0.26561c0.14694,0.00058 0.2662,-0.11866 0.26562,-0.26561v-0.52503h0.28215c0.07536,0.27386 0.15773,0.4109 0.51108,0.73845v0.31987c0,0.15117 -0.11214,0.26601 -0.26355,0.26613h-4.23385c-0.1516,-0.00095 -0.26458,-0.11552 -0.26458,-0.26613v-0.79271c0,-0.15117 0.1124,-0.26561 0.26355,-0.26561zM0.79272,15.08179c0.17279,0.00001 0.34658,0 0.52968,0v0.52916c0.0005,0.14619 0.11944,0.26412 0.26562,0.26355c0.14541,-0.0005 0.26305,-0.11812 0.26355,-0.26355v-0.52916h0.79478v0.52916c0.0005,0.14542 0.11814,0.26305 0.26355,0.26355c0.14617,0.00058 0.26563,-0.11736 0.26613,-0.26355v-0.52916h0.79272v0.52916c0.0005,0.14542 0.11814,0.26305 0.26355,0.26355c0.14617,0.00058 0.26511,-0.11736 0.26562,-0.26355v-0.52916h0.52968c0.15115,0 0.26355,0.11238 0.26355,0.26355v0.79271c0,0.15116 -0.11214,0.26549 -0.26355,0.26561c-1.07181,0 -2.85164,0.00006 -4.23385,0c-0.1516,-0.00095 -0.26458,-0.11501 -0.26458,-0.26561v-0.79271c0,-0.15117 0.1124,-0.26355 0.26355,-0.26355z" id="path866"></path></g></g></g></svg>