<svg version="1.1" xmlns="http://www.w3.org/2000/svg" xmlns:xlink="http://www.w3.org/1999/xlink" width="1.70666in" height="1.70666in" viewBox="0,0,256,256"><g fill="none" fill-rule="evenodd" stroke="#900c3d" stroke-width="46.6654" stroke-linecap="round" stroke-linejoin="round" stroke-miterlimit="10" stroke-dasharray="" stroke-dashoffset="0" font-family="none" font-weight="none" font-size="none" text-anchor="none" style="mix-blend-mode: normal"><g transform="translate(0.07499,0.07499) scale(0.14997,0.14997)"><g id="Layer_x0020_1"><g id="_530600360"><g><path d="M608,1180h129l116,192l116,-192h129c134,0 244,109 244,243v244h-977v-244c0,-134 109,-243 243,-243z"></path><path d="M1023,887v63c0,94 -76,170 -170,170v0c-93,0 -170,-76 -170,-170v-70"></path><path d="M969,1180l-23,-88"></path><path d="M737,1180l24,-88"></path><g><path d="M1198,1453v214"></path><path d="M509,1453v214"></path></g><path d="M1023,887c5,-123 -12,-230 -170,-168c-154,-61 -173,41 -170,161"></path><path d="M1023,887c116,-237 -26,-245 -26,-245c-31,-107 -242,-62 -249,-83c0,0 5,24 17,36c0,0 -207,42 -82,285"></path><path d="M1198,1509h144"></path><path d="M365,1509h144"></path><circle cx="853" cy="1520" r="37"></circle></g><g><g><g><path d="M1313,224c107,0 194,87 194,195c0,161 -110,80 -110,306h-169c0,-226 -110,-145 -110,-306c0,-108 87,-195 195,-195z"></path><path d="M1237,822h151"></path><path d="M1261,918h103"></path></g><path d="M1313,47v87"></path><path d="M1527,104l-44,76"></path><path d="M1098,104l44,76"></path><path d="M1683,261l-76,44"></path><path d="M942,261l76,44"></path></g><g><path d="M405,155c31,10 59,27 82,48l107,-48l57,99l-95,67c3,16 5,31 5,48c0,16 -2,32 -5,47l95,68l-57,99l-107,-49c-23,22 -51,38 -82,48l-11,116h-114l-11,-116c-31,-10 -59,-26 -82,-48l-107,49l-57,-99l95,-68c-3,-15 -5,-31 -5,-47c0,-17 2,-32 5,-48l-95,-67l57,-99l107,48c23,-21 51,-38 82,-48l11,-116h114z"></path><circle cx="337" cy="369" r="113"></circle></g></g></g></g></g></g></svg>