<svg version="1.1" xmlns="http://www.w3.org/2000/svg" xmlns:xlink="http://www.w3.org/1999/xlink" width="20px" height="20px" viewBox="0,0,256,256"><g fill="none" fill-rule="evenodd" stroke="none" stroke-width="1" stroke-linecap="butt" stroke-linejoin="miter" stroke-miterlimit="10" stroke-dasharray="" stroke-dashoffset="0" font-family="none" font-weight="none" font-size="none" text-anchor="none" style="mix-blend-mode: normal"><g transform="translate(0,0) scale(12.8,12.8)"><g id="Icons"><g transform="translate(-816,-2814)" id="Rounded"><g transform="translate(100,2626)" id="Image"><g transform="translate(714,186)" id="-Round-/-Image-/-image_search"><g><path d="M0,0h24v24h-24z" id="Path" fill="none"></path><path d="M18,15v4c0,0.55 -0.45,1 -1,1h-12c-0.55,0 -1,-0.45 -1,-1v-12c0,-0.55 0.45,-1 1,-1h3.02c0.55,0 1,-0.45 1,-1c0,-0.55 -0.45,-1 -1,-1h-4.02c-1.1,0 -2,0.9 -2,2v14c0,1.1 0.9,2 2,2h14c1.1,0 2,-0.9 2,-2v-5c0,-0.55 -0.45,-1 -1,-1c-0.55,0 -1,0.45 -1,1zM15.5,18h-8.98c-0.42,0 -0.65,-0.48 -0.39,-0.81l1.74,-2.23c0.2,-0.25 0.58,-0.26 0.78,-0.01l1.56,1.88l2.35,-3.02c0.2,-0.26 0.6,-0.26 0.79,0.01l2.55,3.39c0.25,0.32 0.01,0.79 -0.4,0.79zM19.3,8.89c0.48,-0.77 0.75,-1.67 0.69,-2.66c-0.13,-2.15 -1.84,-3.97 -3.97,-4.2c-2.72,-0.3 -5.02,1.81 -5.02,4.47c0,2.49 2.01,4.5 4.49,4.5c0.88,0 1.7,-0.26 2.39,-0.7l2.41,2.41c0.39,0.39 1.03,0.39 1.42,0c0.39,-0.39 0.39,-1.03 0,-1.42zM15.5,9c-1.38,0 -2.5,-1.12 -2.5,-2.5c0,-1.38 1.12,-2.5 2.5,-2.5c1.38,0 2.5,1.12 2.5,2.5c0,1.38 -1.12,2.5 -2.5,2.5z" id="🔹-Icon-Color" fill="#900c3d"></path></g></g></g></g></g></g></g></svg>